# xmcd CD database file
#
# Track frame offsets:
#	187
#	19500
#	37435
#	56715
#
# Disc length: 993 seconds
#
# Revision: 0
# Processed by: cddbd v1.5.2PL0 Copyright (c) Steve Scherf et al.
# Submitted via: CDex 1.70beta3
#
DISCID=3203df04
DTITLE=村田和美 - 女の子に生まれたからには
DYEAR=1995
DGENRE=Country
TTITLE0=女の子に生まれたからには
TTITLE1=バラ色の毎日
TTITLE2=女の子に生まれたからには(Karaoke)
TTITLE3=ばら色の毎日(Karaoke)
EXTD=YEAR: 1995
EXTT0=
EXTT1=
EXTT2=
EXTT3=
PLAYORDER=
